<svg version="1.1" xmlns="http://www.w3.org/2000/svg" fill="currentColor" viewBox="0 0 64 21" width="1024px" height="336px">
                <g>
                    <path d="M18.5,12.8c-0.9,0.9-1.7,1.4-2.4,1.4c-0.4,0-0.8-0.2-1-0.6s-0.3-1-0.3-1.7c0-0.5,0.1-1.3,0.3-2.3s0.5-1.8,0.9-2.4l0.3-0.6
                        c-0.5,0.5-0.8,1-1.1,1.6s-0.7,1.4-1.1,2.4c-0.4,1-0.7,1.7-0.9,2.1s-0.4,0.7-0.6,0.9s-0.4,0.4-0.5,0.5s-0.4,0.1-0.8,0.1
                        c-0.1,0-0.2,0-0.2-0.1c0,0,0-0.1,0.1-0.4s0.1-0.6,0.2-1.1s0.1-1.4,0.1-2.7c0-1.3,0.2-2.3,0.6-3.2c-0.4,0.4-0.7,1.4-1.1,2.9
                        l-0.1,0.6c-0.4,1.6-0.9,2.7-1.4,3.2s-1,0.8-1.5,0.8c-0.3,0-0.6-0.1-0.8-0.3c-0.2-0.2-0.4-0.4-0.4-0.7c0-0.2,0.1-0.4,0.4-0.7
                        s0.5-0.4,0.5-0.4c0.1,0,0.1,0,0.2,0.1s0.1,0.2,0.1,0.5c0,0.3,0.1,0.4,0.2,0.5c0.1,0.1,0.2,0.1,0.3,0.1c0.3,0,0.6-0.3,1-0.9
                        s0.7-1.5,1-2.8l0.2-0.7c0.1-0.6,0.3-1,0.4-1.4c0.1-0.3,0.3-0.7,0.5-1c0.3-0.5,0.5-0.8,0.6-0.8s0.2-0.1,0.4-0.1s0.4,0,0.6,0
                        c0.1,0,0.1,0,0.1,0.1c0,0,0,0.1,0,0.3C13,6.7,13,7.2,13,7.8l0,1.6c0,1.4-0.1,2.5-0.3,3.3c0.2-0.3,0.5-0.9,0.9-1.9
                        c0.6-1.5,1.1-2.6,1.6-3.3c0.2-0.4,0.5-0.7,0.8-1s0.5-0.5,0.7-0.5c0.4-0.1,0.8-0.1,1-0.1c0.1,0,0.2,0,0.2,0.1c0,0.1-0.1,0.3-0.2,0.6
                        C17.3,7.1,17,8,16.7,9.2c-0.3,1.2-0.4,2.1-0.4,2.8c0,0.8,0.2,1.2,0.7,1.2c0.4,0,0.9-0.3,1.4-1V12.8z"/>
                    <path d="M24.7,12.8c-0.6,0.6-1.1,1-1.3,1.2s-0.5,0.3-0.8,0.3c-0.6,0-0.9-0.5-0.9-1.6c-0.4,0.6-0.8,1-1.1,1.2s-0.7,0.4-1,0.4
                        c-0.3,0-0.6-0.2-0.9-0.5s-0.4-0.7-0.4-1.2c0-0.6,0.2-1.1,0.5-1.7c0.3-0.5,0.7-1,1.2-1.3s0.9-0.5,1.3-0.5c0.5,0,0.8,0.2,1,0.7
                        l1.2-0.7H24l-0.5,1.7c-0.3,0.9-0.4,1.5-0.4,1.8c0,0.3,0.1,0.5,0.4,0.5c0.2,0,0.3-0.1,0.5-0.2c0.2-0.2,0.4-0.4,0.8-0.7V12.8z
                        M20.4,13.2c0.4,0,0.8-0.3,1.1-1s0.5-1.3,0.5-1.8c0-0.2,0-0.4-0.1-0.5s-0.2-0.2-0.4-0.2c-0.4,0-0.8,0.3-1.1,1
                        c-0.3,0.7-0.5,1.3-0.5,1.8c0,0.2,0.1,0.4,0.2,0.5S20.3,13.2,20.4,13.2z"/>
                    <path d="M31,12.8c-0.6,0.6-1,0.9-1.3,1.1s-0.6,0.3-0.8,0.3c-0.3,0-0.5-0.1-0.7-0.4S28,13.2,28,12.7c-0.3,0.5-0.7,0.9-1,1.2
                        s-0.7,0.4-1,0.4c-0.3,0-0.6-0.2-0.9-0.5s-0.4-0.7-0.4-1.1c0-0.9,0.3-1.7,1-2.4c0.6-0.7,1.3-1.1,2-1.1c0.2,0,0.4,0,0.5,0.1
                        s0.2,0.2,0.4,0.3L29.3,6c0.7-0.2,1.1-0.2,1.4-0.2c0.1,0,0.1,0,0.1,0.1c0,0-0.1,0.4-0.3,1.2c-0.8,3.1-1.2,4.9-1.2,5.5
                        c0,0.1,0,0.3,0.1,0.4c0.1,0.1,0.1,0.1,0.2,0.1c0.3,0,0.7-0.3,1.2-1V12.8z M26.7,13.2c0.4,0,0.7-0.3,1.1-1s0.5-1.3,0.5-1.8
                        c0-0.2-0.1-0.4-0.2-0.6s-0.2-0.2-0.4-0.2c-0.4,0-0.7,0.3-1.1,1c-0.3,0.7-0.5,1.3-0.5,1.8c0,0.2,0,0.4,0.1,0.5S26.5,13.2,26.7,13.2z
                        "/>
                    <path d="M35.3,12.8c-0.5,0.5-0.9,0.8-1.3,1.1s-0.8,0.3-1.3,0.3c-0.5,0-1-0.2-1.3-0.5s-0.5-0.8-0.5-1.3c0-0.8,0.3-1.6,0.9-2.2
                        s1.2-1,1.9-1c0.4,0,0.7,0.1,0.9,0.3s0.3,0.4,0.3,0.7c0,0.8-0.9,1.5-2.6,2c0.2,0.8,0.6,1.1,1.2,1.1c0.3,0,0.5-0.1,0.7-0.2
                        s0.6-0.4,1.1-0.9V12.8z M32.3,11.8c1-0.3,1.5-0.8,1.5-1.6c0-0.4-0.1-0.6-0.4-0.6c-0.3,0-0.5,0.2-0.7,0.6S32.3,11.1,32.3,11.8z"/>
                    <path d="M39.2,12.8c-0.5,0.5-1,0.8-1.4,1.1s-0.8,0.3-1.1,0.3c-0.4,0-0.8-0.2-1-0.5s-0.4-0.8-0.4-1.3c0-0.8,0.2-1.8,0.5-3
                        s0.8-2.2,1.3-3.2l1.5-0.6c0,0,0.1,0,0.1,0c0.1,0,0.2,0.1,0.3,0.2s0.1,0.4,0.1,0.7c0,0.8-0.2,1.6-0.6,2.3s-0.9,1.5-1.7,2.4
                        c0,0.4,0,0.7,0,0.8c0,0.3,0.1,0.6,0.2,0.8s0.3,0.3,0.5,0.3c0.2,0,0.4-0.1,0.7-0.2s0.6-0.5,1.1-0.9V12.8z M37,10.6
                        c0.5-0.6,0.9-1.2,1.2-1.9s0.5-1.3,0.5-1.8c0-0.1,0-0.3-0.1-0.3c0-0.1-0.1-0.1-0.2-0.1c-0.1,0-0.4,0.4-0.6,1.1S37.2,9.3,37,10.6z"/>
                    <path d="M45.5,12.8c-0.5,0.5-1.3,1-2.4,1.5c-0.4,1-0.8,1.8-1.2,2.2s-0.9,0.6-1.4,0.6c-0.3,0-0.5-0.1-0.6-0.2s-0.2-0.4-0.2-0.6
                        c0-0.8,0.7-1.5,2.1-2.1l0.4-1.3c-0.7,0.8-1.4,1.2-1.9,1.2c-0.3,0-0.5-0.1-0.7-0.4s-0.3-0.6-0.3-1c0-0.6,0.1-1.2,0.4-1.9l0.6-1.5
                        l1.7-0.3l-0.7,1.7c-0.3,0.8-0.5,1.5-0.5,1.9c0,0.4,0.1,0.5,0.4,0.5c0.2,0,0.5-0.2,0.8-0.6s0.6-0.9,0.8-1.4l0.7-1.8l1.6-0.3
                        l-1.5,4.6c0.9-0.4,1.6-0.9,2.2-1.6V12.8z M41.6,14.8c-0.5,0.2-0.9,0.5-1.1,0.7s-0.4,0.5-0.4,0.8c0,0.3,0.1,0.4,0.3,0.4
                        C40.8,16.7,41.2,16.1,41.6,14.8z"/>
                    <path d="M51.7,12.8c-0.6,0.6-1.1,1-1.3,1.2s-0.5,0.3-0.8,0.3c-0.6,0-0.9-0.5-0.9-1.6c-0.4,0.6-0.8,1-1.1,1.2s-0.7,0.4-1,0.4
                        c-0.3,0-0.6-0.2-0.9-0.5s-0.4-0.7-0.4-1.2c0-0.6,0.2-1.1,0.5-1.7c0.3-0.5,0.7-1,1.2-1.3s0.9-0.5,1.3-0.5c0.5,0,0.8,0.2,1,0.7
                        l1.2-0.7H51l-0.5,1.7c-0.3,0.9-0.4,1.5-0.4,1.8c0,0.3,0.1,0.5,0.4,0.5c0.2,0,0.3-0.1,0.5-0.2c0.2-0.2,0.4-0.4,0.8-0.7V12.8z
                        M47.4,13.2c0.4,0,0.8-0.3,1.1-1s0.5-1.3,0.5-1.8c0-0.2,0-0.4-0.1-0.5s-0.2-0.2-0.4-0.2c-0.4,0-0.8,0.3-1.1,1
                        c-0.3,0.7-0.5,1.3-0.5,1.8c0,0.2,0.1,0.4,0.2,0.5S47.3,13.2,47.4,13.2z"/>
                    <path d="M57.5,12.8c-0.9,1-1.7,1.4-2.3,1.4c-0.3,0-0.5-0.1-0.6-0.3s-0.2-0.4-0.2-0.7c0-0.4,0.2-1.1,0.5-1.9
                        c0.2-0.5,0.3-0.8,0.3-0.9s0-0.2-0.1-0.2c-0.1,0-0.1,0-0.2,0.1c-0.1,0.1-0.2,0.1-0.3,0.2c-0.1,0.1-0.2,0.2-0.3,0.3
                        c-0.1,0.1-0.2,0.2-0.3,0.4l-0.3,0.4c-0.1,0.2-0.2,0.4-0.3,0.6c-0.1,0.3-0.1,0.6-0.1,0.9c0,0.2,0,0.5,0,0.8l-1.3,0.3
                        c0-0.5-0.1-0.9-0.1-1.2c0-0.6,0.1-1.2,0.2-1.8c0.1-0.6,0.4-1.2,0.7-1.9L54,9.2c-0.3,0.8-0.5,1.4-0.6,1.9c0.6-0.7,1.1-1.2,1.5-1.5
                        c0.4-0.3,0.7-0.4,1-0.4c0.2,0,0.4,0.1,0.5,0.2c0.1,0.2,0.2,0.3,0.2,0.6c0,0.4-0.2,1-0.5,1.9c-0.2,0.6-0.3,1-0.3,1.1
                        c0,0.2,0.1,0.4,0.3,0.4c0.3,0,0.7-0.4,1.4-1.1V12.8z"/>
                    <path d="M63.7,12.8c-0.6,0.6-1.1,1-1.3,1.2s-0.5,0.3-0.8,0.3c-0.6,0-0.9-0.5-0.9-1.6c-0.4,0.6-0.8,1-1.1,1.2s-0.7,0.4-1,0.4
                        c-0.3,0-0.6-0.2-0.9-0.5s-0.4-0.7-0.4-1.2c0-0.6,0.2-1.1,0.5-1.7c0.3-0.5,0.7-1,1.2-1.3s0.9-0.5,1.3-0.5c0.5,0,0.8,0.2,1,0.7
                        l1.2-0.7H63l-0.5,1.7c-0.3,0.9-0.4,1.5-0.4,1.8c0,0.3,0.1,0.5,0.4,0.5c0.2,0,0.3-0.1,0.5-0.2s0.4-0.4,0.8-0.7V12.8z M59.4,13.2
                        c0.4,0,0.8-0.3,1.1-1s0.5-1.3,0.5-1.8c0-0.2,0-0.4-0.1-0.5s-0.2-0.2-0.4-0.2c-0.4,0-0.8,0.3-1.1,1c-0.3,0.7-0.5,1.3-0.5,1.8
                        c0,0.2,0.1,0.4,0.2,0.5S59.3,13.2,59.4,13.2z"/>
                </g>
                <path d="M15.7,4.4l-3.1-3.1c-1.2-1.2-3.2-1.2-4.4,0l-7,7C0,9.5,0,11.4,1.2,12.6l7,7c1.2,1.2,3.2,1.2,4.4,0l3.7-3.7l-2.1,1l-1.7,0.7
                    c-1.2,1.2-3.2,1.2-4.4,0l-4.9-4.9c-1.2-1.2-1.2-3.2,0-4.4L9,2.6c0.8-0.8,2.1-0.8,2.8,0"/>
            </svg>